<svg version="1.1" id="Layer_1" xmlns="http://www.w3.org/2000/svg" x="0" y="0" viewBox="0 0 24 24" xml:space="preserve"><style type="text/css">.st0{fill-rule:evenodd;clip-rule:evenodd;fill:#fff}</style><circle class="st0" cx="12" cy="12" r="12"/><circle class="st0" cx="12" cy="12" r="10"/><path d="M9.6 16.7H6v-.2L7.3 15c.1-.1.2-.3.2-.5V9.2c0-.1 0-.3-.2-.4L6.2 7.4v-.2h3.5l2.7 5.9 2.4-5.9H18v.2l-1 .9c-.1.1-.1.2-.1.3v6.7c0 .1 0 .2.1.3l.9.9v.2h-4.7v-.2l1-.9c.1-.1.1-.1.1-.3V9.9l-2.7 6.8h-.4L8.1 9.9v4.6c0 .2 0 .4.2.5l1.3 1.5v.2z" fill-rule="evenodd" clip-rule="evenodd"/></svg>