<?xml version="1.0" encoding="utf-8"?>
<!-- Generator: Adobe Illustrator 23.0.1, SVG Export Plug-In . SVG Version: 6.00 Build 0)  -->
<svg version="1.1" id="Layer_1" xmlns="http://www.w3.org/2000/svg" xmlns:xlink="http://www.w3.org/1999/xlink" x="0px" y="0px"
	 viewBox="0 0 24 24" style="enable-background:new 0 0 24 24;" xml:space="preserve">
<style type="text/css">
	.st0{fill-rule:evenodd;clip-rule:evenodd;fill:#FFFFFF;}
	.st1{fill-rule:evenodd;clip-rule:evenodd;}
</style>
<circle class="st0" cx="12" cy="12" r="12"/>
<circle class="st0" cx="12" cy="12" r="10"/>
<path class="st1" d="M9.6,16.7H6v-0.2L7.3,15c0.1-0.1,0.2-0.3,0.2-0.5V9.2c0-0.1,0-0.3-0.2-0.4L6.2,7.4V7.2h3.5l2.7,5.9l2.4-5.9H18
	v0.2l-1,0.9c-0.1,0.1-0.1,0.2-0.1,0.3v6.7c0,0.1,0,0.2,0.1,0.3l0.9,0.9v0.2h-4.7v-0.2l1-0.9c0.1-0.1,0.1-0.1,0.1-0.3V9.9l-2.7,6.8
	h-0.4L8.1,9.9v4.6c0,0.2,0,0.4,0.2,0.5l1.3,1.5C9.6,16.5,9.6,16.7,9.6,16.7z"/>
</svg>
